<svg width="32" height="32" viewBox="0 0 32 32" fill="none" xmlns="http://www.w3.org/2000/svg">
<path d="M6.77832 12.6904C5.86658 13.7316 5.19198 14.7644 4.74219 15.5527C4.65043 15.7136 4.56936 15.8637 4.49707 16C4.56936 16.1363 4.65043 16.2864 4.74219 16.4473C5.21812 17.2814 5.94438 18.3905 6.93848 19.4922C8.92517 21.6939 11.8625 23.75 16 23.75C17.5503 23.75 18.9317 23.4603 20.1582 22.9834L22.1826 24.541C20.446 25.4199 18.3942 26 16 26C6.04691 26 2 16 2 16C2 16 2.92998 13.7071 4.99121 11.3164L6.77832 12.6904ZM16 6C25.9531 6 30 16 30 16C30 16 29.069 18.292 27.0078 20.6826L25.2207 19.3086C26.1324 18.2675 26.808 17.2356 27.2578 16.4473C27.3495 16.2866 27.4297 16.1362 27.502 16C27.4297 15.8638 27.3495 15.7134 27.2578 15.5527C26.7819 14.7186 26.0556 13.6095 25.0615 12.5078C23.0748 10.3061 20.1375 8.25 16 8.25C14.4495 8.25 13.0674 8.53865 11.8408 9.01562L9.81641 7.45801C11.5531 6.57898 13.6056 6 16 6Z" fill="#0A0A0A"/>
<path d="M13.1807 17.6162C13.6065 18.3575 14.3158 18.9144 15.1611 19.1396L17.8242 21.1885C17.2532 21.3892 16.6396 21.5 16 21.5C12.9624 21.5 10.5 19.0376 10.5 16C10.5 15.8544 10.5065 15.7101 10.5176 15.5674L13.1807 17.6162ZM16 10.5C19.0376 10.5 21.5 12.9624 21.5 16C21.5 16.1453 21.4925 16.2892 21.4814 16.4316L18.8184 14.3828C18.3922 13.6418 17.6832 13.0843 16.8379 12.8594L14.1748 10.8105C14.746 10.6097 15.3602 10.5 16 10.5Z" fill="#0A0A0A"/>
<path d="M3 6L29 26" stroke="#0A0A0A" stroke-width="2.25"/>
</svg>
