<svg width="32" height="32" viewBox="0 0 32 32" fill="none" xmlns="http://www.w3.org/2000/svg">
<circle cx="16" cy="16" r="4.375" stroke="#0A0A0A" stroke-width="2.25"/>
<path d="M16 7.125C20.557 7.125 23.7762 9.40306 25.8975 11.7539C26.9584 12.9297 27.73 14.1094 28.2354 14.9951C28.4698 15.406 28.6441 15.7517 28.7637 16C28.6441 16.2483 28.4698 16.594 28.2354 17.0049C27.73 17.8906 26.9584 19.0703 25.8975 20.2461C23.7762 22.5969 20.557 24.875 16 24.875C11.443 24.875 8.22382 22.5969 6.10254 20.2461C5.04164 19.0703 4.27004 17.8906 3.76465 17.0049C3.53009 16.5938 3.35493 16.2484 3.23535 16C3.35493 15.7516 3.53009 15.4062 3.76465 14.9951C4.27004 14.1094 5.04164 12.9297 6.10254 11.7539C8.22382 9.40306 11.443 7.125 16 7.125Z" stroke="#0A0A0A" stroke-width="2.25"/>
</svg>
