<svg width="32" height="32" viewBox="0 0 32 32" fill="none" xmlns="http://www.w3.org/2000/svg">
<circle cx="16" cy="16" r="12.875" stroke="#0A0A0A" stroke-width="2.25"/>
<path d="M16 3.125C16.448 3.125 16.9686 3.33254 17.5449 3.90137C18.1261 4.47497 18.7018 5.36062 19.209 6.54395C20.2215 8.90668 20.875 12.2492 20.875 16C20.875 19.7508 20.2215 23.0933 19.209 25.4561C18.7018 26.6394 18.1261 27.525 17.5449 28.0986C16.9686 28.6675 16.448 28.875 16 28.875C15.552 28.875 15.0314 28.6675 14.4551 28.0986C13.8739 27.525 13.2982 26.6394 12.791 25.4561C11.7785 23.0933 11.125 19.7508 11.125 16C11.125 12.2492 11.7785 8.90668 12.791 6.54395C13.2982 5.36062 13.8739 4.47497 14.4551 3.90137C15.0314 3.33254 15.552 3.125 16 3.125Z" stroke="#0A0A0A" stroke-width="2.25"/>
<path d="M29.0322 10.875C29.3166 11.5976 29.5422 12.3495 29.7041 13.125H2.2959C2.45776 12.3495 2.6834 11.5976 2.96777 10.875H29.0322Z" fill="#0A0A0A"/>
<path d="M29.7041 18.875C29.5422 19.6505 29.3166 20.4024 29.0322 21.125H2.96777C2.6834 20.4024 2.45776 19.6505 2.2959 18.875H29.7041Z" fill="#0A0A0A"/>
</svg>
