<svg viewBox="0 0 32 32" xmlns="http://www.w3.org/2000/svg" stroke="currentColor" fill="none" stroke-linecap="round" stroke-linejoin="round">
  <mask id="path-1-inside-1_321_2782">
    <path d="M4.33235 6.6967C7.26122 3.76784 12.01 3.76798 14.939 6.6967L15.9996 7.75736L17.0603 6.6967C19.9891 3.76784 24.7379 3.76798 27.6669 6.6967C30.5958 9.62563 30.5958 14.3744 27.6669 17.3033L15.9996 28.9706L4.33235 17.3033C1.40371 14.3744 1.40373 9.62558 4.33235 6.6967Z"/>
  </mask>
  <path d="M4.33235 6.6967L2.74136 5.10571L2.74129 5.10578L4.33235 6.6967ZM14.939 6.6967L16.5299 5.10571L16.5299 5.10565L14.939 6.6967ZM15.9996 7.75736L14.4086 9.34835L15.9996 10.9393L17.5906 9.34835L15.9996 7.75736ZM17.0603 6.6967L15.4693 5.10571L15.4693 5.10571L17.0603 6.6967ZM27.6669 6.6967L29.2579 5.10571L29.2578 5.10565L27.6669 6.6967ZM27.6669 17.3033L26.0759 15.7123L26.0759 15.7123L27.6669 17.3033ZM15.9996 28.9706L14.4086 30.5616L15.9996 32.1525L17.5906 30.5616L15.9996 28.9706ZM4.33235 17.3033L2.7413 18.8942L2.74136 18.8943L4.33235 17.3033ZM4.33235 6.6967L5.92334 8.28769C7.97346 6.23757 11.2977 6.23757 13.348 8.28775L14.939 6.6967L16.5299 5.10565C12.7223 1.29839 6.54897 1.29811 2.74136 5.10571L4.33235 6.6967ZM14.939 6.6967L13.348 8.28769L14.4086 9.34835L15.9996 7.75736L17.5906 6.16637L16.5299 5.10571L14.939 6.6967ZM15.9996 7.75736L17.5906 9.34835L18.6513 8.28769L17.0603 6.6967L15.4693 5.10571L14.4086 6.16637L15.9996 7.75736ZM17.0603 6.6967L18.6513 8.28769C20.7014 6.23757 24.0256 6.23757 26.0759 8.28775L27.6669 6.6967L29.2578 5.10565C25.4503 1.29839 19.2769 1.29811 15.4693 5.10571L17.0603 6.6967ZM27.6669 6.6967L26.0759 8.28769C28.1261 10.3379 28.1261 13.6621 26.0759 15.7123L27.6669 17.3033L29.2579 18.8943C33.0655 15.0867 33.0655 8.91332 29.2579 5.10571L27.6669 6.6967ZM27.6669 17.3033L26.0759 15.7123L14.4086 27.3796L15.9996 28.9706L17.5906 30.5616L29.2579 18.8943L27.6669 17.3033ZM15.9996 28.9706L17.5906 27.3796L5.92334 15.7123L4.33235 17.3033L2.74136 18.8943L14.4086 30.5616L15.9996 28.9706ZM4.33235 17.3033L5.92341 15.7124C3.87337 13.6622 3.87337 10.3378 5.92341 8.28762L4.33235 6.6967L2.74129 5.10578C-1.06591 8.91332 -1.06595 15.0867 2.7413 18.8942L4.33235 17.3033Z" mask="url(#path-1-inside-1_321_2782)"/>
</svg>
