<svg viewBox="0 0 32 32" xmlns="http://www.w3.org/2000/svg" stroke="currentColor" fill="none" stroke-linecap="round" stroke-linejoin="round">
  <path d="M16 4.25C9.51065 4.25 4.25 9.51065 4.25 16C4.25 22.4893 9.51065 27.75 16 27.75C22.4893 27.75 27.75 22.4893 27.75 16H30C30 23.732 23.732 30 16 30C8.26801 30 2 23.732 2 16C2 8.26801 8.26801 2 16 2V4.25Z"/>
  <path d="M28.5512 7.51476L15.5346 20.5313H11.4688V16.4655L24.4854 3.4489L28.5512 7.51476Z"/>
  <path d="M28.5512 7.51476L25.1925 10.8735L21.1266 6.80766L24.4854 3.4489L28.5512 7.51476Z"/>
</svg>
