<svg width="32" height="32" viewBox="0 0 32 32" fill="none" xmlns="http://www.w3.org/2000/svg">
<path d="M16 19.75V28L9.22266 21.1426H3V10.8574H4.14258L16 19.75ZM16 12.249L11.3174 8.7373L16 4V12.249Z" fill="#0A0A0A"/>
<path d="M20.877 9.29468C22.3347 11.1065 23.125 13.5209 23.125 15.9998C23.125 16.5096 23.0892 17.0167 23.0234 17.5164L20.8721 15.9041C20.8519 13.9184 20.2088 12.0541 19.123 10.7048L20.877 9.29468Z" fill="#0A0A0A"/>
<path d="M24.8887 26.4172C24.5632 26.8767 24.2164 27.3201 23.8457 27.7424L22.1543 26.2581C22.4862 25.88 22.7969 25.4813 23.0879 25.0667L24.8887 26.4172ZM23.8457 4.25806C26.5989 7.39455 28.125 11.6202 28.125 16.0002C28.125 17.6599 27.9044 19.2971 27.4824 20.8616L25.5225 19.3918C25.7539 18.2918 25.875 17.1543 25.875 16.0002C25.875 12.1292 24.5233 8.44128 22.1543 5.74243L23.8457 4.25806Z" fill="#0A0A0A"/>
<path d="M3 6L29 26" stroke="#0A0A0A" stroke-width="2.25"/>
</svg>
