<svg xmlns="http://www.w3.org/2000/svg" style="display:none">
<symbol id="ic-AddCircleOutlined100" viewBox="0 0 32 32">
  <circle cx="16" cy="16" r="12.875"/>
  <path d="M16 10L16 22"/>
  <path d="M22 16L10 16"/>

</symbol>
<symbol id="ic-AddCircleOutlined200" viewBox="0 0 32 32">
  <circle cx="16" cy="16" r="12.875"/>
  <path d="M16 8L16 24"/>
  <path d="M24 16L8 16"/>

</symbol>
<symbol id="ic-AddOutlined100" viewBox="0 0 32 32">
  <path d="M16 8L16 24"/>
  <path d="M24 16L8 16"/>

</symbol>
<symbol id="ic-AddOutlined200" viewBox="0 0 32 32">
  <path d="M16 5L16 27"/>
  <path d="M27 16L5 16"/>

</symbol>
<symbol id="ic-AddSquareOutlined" viewBox="0 0 32 32">
  <path d="M16 10L16 22"/>
  <path d="M22 16L10 16"/>
  <path d="M26.875 5.125V26.875H5.125V5.125H26.875Z"/>

</symbol>
<symbol id="ic-ArrowDownLeftOutlined100" viewBox="0 0 32 32">
  <path d="M9.84302 12.4644V21.6567H19.0354"/>
  <path d="M21.1567 10.343L10.1567 21.343"/>

</symbol>
<symbol id="ic-ArrowDownLeftOutlined200" viewBox="0 0 32 32">
  <path d="M7 25L25 7"/>
  <path d="M7 10L7 25L22 25"/>

</symbol>
<symbol id="ic-ArrowDownOutlined100" viewBox="0 0 32 32">
  <path d="M9.00001 17.5L15.5 24L22 17.5"/>
  <path d="M15.5 8L15.5 23.5563"/>

</symbol>
<symbol id="ic-ArrowDownOutlined200" viewBox="0 0 32 32">
  <path d="M6.80761 17.4351L16 26.6274L25.1924 17.4351"/>
  <path d="M16 4L16 26"/>

</symbol>
<symbol id="ic-ArrowDownRightOutlined100" viewBox="0 0 32 32">
  <path d="M11.9644 21.657H21.1567V12.4646"/>
  <path d="M9.84302 10.3433L20.843 21.3432"/>

</symbol>
<symbol id="ic-ArrowDownRightOutlined200" viewBox="0 0 32 32">
  <path d="M25 25L7 7"/>
  <path d="M10 25L25 25L25 10"/>

</symbol>
<symbol id="ic-ArrowLeftOutlined100" viewBox="0 0 32 32">
  <path d="M14.5 10L8 16.5L14.5 23"/>
  <path d="M24 16.5L8.44367 16.5"/>

</symbol>
<symbol id="ic-ArrowLeftOutlined200" viewBox="0 0 32 32">
  <path d="M14.5649 6.80761L5.37256 16L14.5649 25.1924"/>
  <path d="M28 16L6 16"/>

</symbol>
<symbol id="ic-ArrowRightOutlined100" viewBox="0 0 32 32">
  <path d="M17.5 22L24 15.5L17.5 9.00001"/>
  <path d="M8 15.5L23.5563 15.5"/>

</symbol>
<symbol id="ic-ArrowRightOutlined200" viewBox="0 0 32 32">
  <path d="M28.2188 16L18.2305 25.9883L16.6396 24.3965L23.9111 17.125H4V14.875H23.9111L16.6396 7.60352L18.2305 6.01172L28.2188 16Z"/>

</symbol>
<symbol id="ic-ArrowUpLeftOutlined100" viewBox="0 0 32 32">
  <path d="M19.0356 10.343H9.84326V19.5354"/>
  <path d="M21.1567 21.6567L10.1567 10.6568"/>

</symbol>
<symbol id="ic-ArrowUpLeftOutlined200" viewBox="0 0 32 32">
  <path d="M7 7L25 25"/>
  <path d="M22 7H7V22"/>

</symbol>
<symbol id="ic-ArrowUpOutlined100" viewBox="0 0 32 32">
  <path d="M22 14.5L15.5 8L9.00001 14.5"/>
  <path d="M15.5 24L15.5 8.44367"/>

</symbol>
<symbol id="ic-ArrowUpOutlined200" viewBox="0 0 32 32">
  <path d="M25.1924 14.5649L16 5.37256L6.80761 14.5649"/>
  <path d="M16 28L16 6"/>

</symbol>
<symbol id="ic-ArrowUpRightOutlined100" viewBox="0 0 32 32">
  <path d="M21.157 19.5356L21.157 10.3433L11.9646 10.3433"/>
  <path d="M9.84326 21.657L20.8432 10.657"/>

</symbol>
<symbol id="ic-ArrowUpRightOutlined200" viewBox="0 0 32 32">
  <path d="M25 7L7 25"/>
  <path d="M10 7H25V22"/>

</symbol>
<symbol id="ic-BagActivatedOutlined" viewBox="0 0 32 32">
  <path d="M26.875 5.125V26.875H5.125V5.125H26.875Z"/>
  <path d="M15.8823 21V13.482H13.5443V12.306C15.0843 12.25 15.8263 11.956 16.3443 10.85H17.5483V21H15.8823Z"/>

</symbol>
<symbol id="ic-BagOutlined" viewBox="0 0 32 32">
  <path d="M11 10L11 11C11 13.7614 13.2386 16 16 16C18.7614 16 21 13.7614 21 11L21 10"/>
  <path d="M26.875 5.125V26.875H5.125V5.125H26.875Z"/>

</symbol>
<symbol id="ic-BinOutlined" viewBox="0 0 32 32">
  <path d="M21 8V4H11V8"/>
  <path d="M28 9L4 9"/>
  <mask id="path-3-inside-1_321_2793">
    <path d="M6 8H26V29H6V8Z"/>
  </mask>
  <path d="M6 8V5.75H3.75V8H6ZM26 8H28.25V5.75H26V8ZM26 29V31.25H28.25V29H26ZM6 29H3.75V31.25H6V29ZM6 8V10.25H26V8V5.75H6V8ZM26 8H23.75V29H26H28.25V8H26ZM26 29V26.75H6V29V31.25H26V29ZM6 29H8.25V8H6H3.75V29H6Z" mask="url(#path-3-inside-1_321_2793)"/>

</symbol>
<symbol id="ic-CheckCircleOutlined" viewBox="0 0 32 32">
  <path d="M21.9373 11.4342L13.8055 19.5659L9.56289 15.3233"/>
  <circle cx="16" cy="16" r="12.875"/>

</symbol>
<symbol id="ic-CheckIndeterminateCircleOutlined100" viewBox="0 0 32 32">
  <circle cx="16" cy="16" r="12.875"/>
  <path d="M22 16L10 16"/>
  <path d="M16 16L16 16.0001"/>

</symbol>
<symbol id="ic-CheckIndeterminateCircleOutlined200" viewBox="0 0 32 32">
  <circle cx="16" cy="16" r="12.875"/>
  <path d="M24 16L8 16"/>

</symbol>
<symbol id="ic-CheckIndeterminateOutlined100" viewBox="0 0 32 32">
  <path d="M24 16L8 16"/>

</symbol>
<symbol id="ic-CheckIndeterminateOutlined200" viewBox="0 0 32 32">
  <path d="M27 16L5 16"/>
  <path d="M16 16L16 16.0001"/>

</symbol>
<symbol id="ic-CheckIndeterminateSquareOutlined" viewBox="0 0 32 32">
  <path d="M22 16L10 16"/>
  <path d="M16 16L16 16.0001"/>
  <path d="M26.875 5.125V26.875H5.125V5.125H26.875Z"/>

</symbol>
<symbol id="ic-CheckOutlined100" viewBox="0 0 32 32">
  <path d="M21.9373 11.4342L13.8055 19.5659L9.56289 15.3233"/>

</symbol>
<symbol id="ic-CheckOutlined200" viewBox="0 0 32 32">
  <path d="M28 8L13 23L5 15"/>

</symbol>
<symbol id="ic-ChevronDownOutlined100" viewBox="0 0 32 32">
  <path d="M8.22182 12.2218L16 20L23.7782 12.2218"/>

</symbol>
<symbol id="ic-ChevronDownOutlined200" viewBox="0 0 32 32">
  <path d="M6.80761 11.8076L16 21L25.1924 11.8076"/>

</symbol>
<symbol id="ic-ChevronLeftOutlined100" viewBox="0 0 32 32">
  <path d="M19.7782 8.22183L12 16L19.7782 23.7782"/>

</symbol>
<symbol id="ic-ChevronLeftOutlined200" viewBox="0 0 32 32">
  <path d="M20.1924 6.80761L11 16L20.1924 25.1924"/>

</symbol>
<symbol id="ic-ChevronRightOutlined100" viewBox="0 0 32 32">
  <path d="M12.2218 23.7782L20 16L12.2218 8.22183"/>

</symbol>
<symbol id="ic-ChevronRightOutlined200" viewBox="0 0 32 32">
  <path d="M11.8076 25.1924L21 16L11.8076 6.80761"/>

</symbol>
<symbol id="ic-ChevronUpOutlined100" viewBox="0 0 32 32">
  <path d="M23.7782 19.7782L16 12L8.22182 19.7782"/>

</symbol>
<symbol id="ic-ChevronUpOutlined200" viewBox="0 0 32 32">
  <path d="M25.1924 20.1924L16 11L6.80761 20.1924"/>

</symbol>
<symbol id="ic-CircleFilled" viewBox="0 0 32 32">
  <circle cx="16" cy="16" r="14"/>

</symbol>
<symbol id="ic-CircleOutlined" viewBox="0 0 32 32">
  <circle cx="16" cy="16" r="12.875"/>

</symbol>
<symbol id="ic-CrossCircleOutlined100" viewBox="0 0 32 32">
  <path d="M11 11L21 21"/>
  <path d="M21 11L11 21"/>
  <circle cx="16" cy="16" r="12.875"/>

</symbol>
<symbol id="ic-CrossCircleOutlined200" viewBox="0 0 32 32">
  <path d="M10 10L22 22"/>
  <path d="M22 10L10 22"/>
  <circle cx="16" cy="16" r="12.875"/>

</symbol>
<symbol id="ic-CrossOutlinedLg" viewBox="0 0 32 32">
  <path d="M6 6L26 26"/>
  <path d="M26 6L6 26"/>

</symbol>
<symbol id="ic-CrossOutlinedSm" viewBox="0 0 32 32">
  <path d="M10 10L22 22"/>
  <path d="M22 10L10 22"/>

</symbol>
<symbol id="ic-CrossSquareOutlined" viewBox="0 0 32 32">
  <path d="M26.875 5.125V26.875H5.125V5.125H26.875Z"/>
  <path d="M11 11L21 21"/>
  <path d="M21 11L11 21"/>

</symbol>
<symbol id="ic-DotFilled100" viewBox="0 0 32 32">
  <circle cx="16" cy="16" r="5"/>

</symbol>
<symbol id="ic-DotFilled200" viewBox="0 0 32 32">
  <circle cx="16" cy="16" r="7"/>

</symbol>
<symbol id="ic-DotSquareFilled100" viewBox="0 0 32 32">
  <path d="M19.875 12.125V19.875H12.125V12.125H19.875Z"/>

</symbol>
<symbol id="ic-DotSquareFilled200" viewBox="0 0 32 32">
  <path d="M21.875 10.125V21.875H10.125V10.125H21.875Z"/>

</symbol>
<symbol id="ic-ExclamationDiamondOutlined" viewBox="0 0 32 32">
  <path d="M16 17V10"/>
  <path d="M28.4082 16L16 28.4082L3.5918 16L16 3.5918L28.4082 16Z"/>
  <circle cx="16" cy="20.5" r="1.5"/>

</symbol>
<symbol id="ic-ExclamationOutlined" viewBox="0 0 32 32">
  <path d="M16 18V9"/>
  <circle cx="16" cy="21.5" r="1.5"/>

</symbol>
<symbol id="ic-EyeOutlined" viewBox="0 0 32 32">
  <circle cx="16" cy="16" r="4.375"/>
  <path d="M16 7.125C20.557 7.125 23.7762 9.40306 25.8975 11.7539C26.9584 12.9297 27.73 14.1094 28.2354 14.9951C28.4698 15.406 28.6441 15.7517 28.7637 16C28.6441 16.2483 28.4698 16.594 28.2354 17.0049C27.73 17.8906 26.9584 19.0703 25.8975 20.2461C23.7762 22.5969 20.557 24.875 16 24.875C11.443 24.875 8.22382 22.5969 6.10254 20.2461C5.04164 19.0703 4.27004 17.8906 3.76465 17.0049C3.53009 16.5938 3.35493 16.2484 3.23535 16C3.35493 15.7516 3.53009 15.4062 3.76465 14.9951C4.27004 14.1094 5.04164 12.9297 6.10254 11.7539C8.22382 9.40306 11.443 7.125 16 7.125Z"/>

</symbol>
<symbol id="ic-EyeSlashOutlined" viewBox="0 0 32 32">
  <path d="M6.77832 12.6904C5.86658 13.7316 5.19198 14.7644 4.74219 15.5527C4.65043 15.7136 4.56936 15.8637 4.49707 16C4.56936 16.1363 4.65043 16.2864 4.74219 16.4473C5.21812 17.2814 5.94438 18.3905 6.93848 19.4922C8.92517 21.6939 11.8625 23.75 16 23.75C17.5503 23.75 18.9317 23.4603 20.1582 22.9834L22.1826 24.541C20.446 25.4199 18.3942 26 16 26C6.04691 26 2 16 2 16C2 16 2.92998 13.7071 4.99121 11.3164L6.77832 12.6904ZM16 6C25.9531 6 30 16 30 16C30 16 29.069 18.292 27.0078 20.6826L25.2207 19.3086C26.1324 18.2675 26.808 17.2356 27.2578 16.4473C27.3495 16.2866 27.4297 16.1362 27.502 16C27.4297 15.8638 27.3495 15.7134 27.2578 15.5527C26.7819 14.7186 26.0556 13.6095 25.0615 12.5078C23.0748 10.3061 20.1375 8.25 16 8.25C14.4495 8.25 13.0674 8.53865 11.8408 9.01562L9.81641 7.45801C11.5531 6.57898 13.6056 6 16 6Z"/>
  <path d="M13.1807 17.6162C13.6065 18.3575 14.3158 18.9144 15.1611 19.1396L17.8242 21.1885C17.2532 21.3892 16.6396 21.5 16 21.5C12.9624 21.5 10.5 19.0376 10.5 16C10.5 15.8544 10.5065 15.7101 10.5176 15.5674L13.1807 17.6162ZM16 10.5C19.0376 10.5 21.5 12.9624 21.5 16C21.5 16.1453 21.4925 16.2892 21.4814 16.4316L18.8184 14.3828C18.3922 13.6418 17.6832 13.0843 16.8379 12.8594L14.1748 10.8105C14.746 10.6097 15.3602 10.5 16 10.5Z"/>
  <path d="M3 6L29 26"/>

</symbol>
<symbol id="ic-GlobeOutlined" viewBox="0 0 32 32">
  <circle cx="16" cy="16" r="12.875"/>
  <path d="M16 3.125C16.448 3.125 16.9686 3.33254 17.5449 3.90137C18.1261 4.47497 18.7018 5.36062 19.209 6.54395C20.2215 8.90668 20.875 12.2492 20.875 16C20.875 19.7508 20.2215 23.0933 19.209 25.4561C18.7018 26.6394 18.1261 27.525 17.5449 28.0986C16.9686 28.6675 16.448 28.875 16 28.875C15.552 28.875 15.0314 28.6675 14.4551 28.0986C13.8739 27.525 13.2982 26.6394 12.791 25.4561C11.7785 23.0933 11.125 19.7508 11.125 16C11.125 12.2492 11.7785 8.90668 12.791 6.54395C13.2982 5.36062 13.8739 4.47497 14.4551 3.90137C15.0314 3.33254 15.552 3.125 16 3.125Z"/>
  <path d="M29.0322 10.875C29.3166 11.5976 29.5422 12.3495 29.7041 13.125H2.2959C2.45776 12.3495 2.6834 11.5976 2.96777 10.875H29.0322Z"/>
  <path d="M29.7041 18.875C29.5422 19.6505 29.3166 20.4024 29.0322 21.125H2.96777C2.6834 20.4024 2.45776 19.6505 2.2959 18.875H29.7041Z"/>

</symbol>
<symbol id="ic-HeartFilled" viewBox="0 0 32 32">
  <path d="M4.33235 6.6967C7.26122 3.76784 12.01 3.76798 14.939 6.6967L15.9996 7.75736L17.0603 6.6967C19.9891 3.76784 24.7379 3.76798 27.6669 6.6967C30.5958 9.62563 30.5958 14.3744 27.6669 17.3033L15.9996 28.9706L4.33235 17.3033C1.40371 14.3744 1.40373 9.62558 4.33235 6.6967Z"/>

</symbol>
<symbol id="ic-HeartOutlined" viewBox="0 0 32 32">
  <mask id="path-1-inside-1_321_2782">
    <path d="M4.33235 6.6967C7.26122 3.76784 12.01 3.76798 14.939 6.6967L15.9996 7.75736L17.0603 6.6967C19.9891 3.76784 24.7379 3.76798 27.6669 6.6967C30.5958 9.62563 30.5958 14.3744 27.6669 17.3033L15.9996 28.9706L4.33235 17.3033C1.40371 14.3744 1.40373 9.62558 4.33235 6.6967Z"/>
  </mask>
  <path d="M4.33235 6.6967L2.74136 5.10571L2.74129 5.10578L4.33235 6.6967ZM14.939 6.6967L16.5299 5.10571L16.5299 5.10565L14.939 6.6967ZM15.9996 7.75736L14.4086 9.34835L15.9996 10.9393L17.5906 9.34835L15.9996 7.75736ZM17.0603 6.6967L15.4693 5.10571L15.4693 5.10571L17.0603 6.6967ZM27.6669 6.6967L29.2579 5.10571L29.2578 5.10565L27.6669 6.6967ZM27.6669 17.3033L26.0759 15.7123L26.0759 15.7123L27.6669 17.3033ZM15.9996 28.9706L14.4086 30.5616L15.9996 32.1525L17.5906 30.5616L15.9996 28.9706ZM4.33235 17.3033L2.7413 18.8942L2.74136 18.8943L4.33235 17.3033ZM4.33235 6.6967L5.92334 8.28769C7.97346 6.23757 11.2977 6.23757 13.348 8.28775L14.939 6.6967L16.5299 5.10565C12.7223 1.29839 6.54897 1.29811 2.74136 5.10571L4.33235 6.6967ZM14.939 6.6967L13.348 8.28769L14.4086 9.34835L15.9996 7.75736L17.5906 6.16637L16.5299 5.10571L14.939 6.6967ZM15.9996 7.75736L17.5906 9.34835L18.6513 8.28769L17.0603 6.6967L15.4693 5.10571L14.4086 6.16637L15.9996 7.75736ZM17.0603 6.6967L18.6513 8.28769C20.7014 6.23757 24.0256 6.23757 26.0759 8.28775L27.6669 6.6967L29.2578 5.10565C25.4503 1.29839 19.2769 1.29811 15.4693 5.10571L17.0603 6.6967ZM27.6669 6.6967L26.0759 8.28769C28.1261 10.3379 28.1261 13.6621 26.0759 15.7123L27.6669 17.3033L29.2579 18.8943C33.0655 15.0867 33.0655 8.91332 29.2579 5.10571L27.6669 6.6967ZM27.6669 17.3033L26.0759 15.7123L14.4086 27.3796L15.9996 28.9706L17.5906 30.5616L29.2579 18.8943L27.6669 17.3033ZM15.9996 28.9706L17.5906 27.3796L5.92334 15.7123L4.33235 17.3033L2.74136 18.8943L14.4086 30.5616L15.9996 28.9706ZM4.33235 17.3033L5.92341 15.7124C3.87337 13.6622 3.87337 10.3378 5.92341 8.28762L4.33235 6.6967L2.74129 5.10578C-1.06591 8.91332 -1.06595 15.0867 2.7413 18.8942L4.33235 17.3033Z" mask="url(#path-1-inside-1_321_2782)"/>

</symbol>
<symbol id="ic-InformationCircleOutlined" viewBox="0 0 32 32">
  <circle cx="16" cy="16" r="12.875"/>
  <path d="M16 14L16 23"/>
  <circle cx="16" cy="10.5" r="1.5" transform="rotate(-180 16 10.5)"/>

</symbol>
<symbol id="ic-InformationOutlined" viewBox="0 0 32 32">
  <path d="M16 14L16 23"/>
  <circle cx="16" cy="10.5" r="1.5" transform="rotate(-180 16 10.5)"/>

</symbol>
<symbol id="ic-MagnifyingGlassOutlined" viewBox="0 0 32 32">
  <path d="M21 22L27 28"/>
  <circle cx="14" cy="15" r="8.875"/>

</symbol>
<symbol id="ic-MagnifyingGlassZoomInOutlined" viewBox="0 0 32 32">
  <path d="M21 21L27 27"/>
  <circle cx="14" cy="14" r="8.875"/>
  <path d="M14 9L14 19"/>
  <path d="M19 14L9 14"/>

</symbol>
<symbol id="ic-MagnifyingGlassZoomOutOutlined" viewBox="0 0 32 32">
  <path d="M21 21L27 27"/>
  <circle cx="14" cy="14" r="8.875"/>
  <path d="M19 14L9 14"/>

</symbol>
<symbol id="ic-MenuHamburger2Outlined" viewBox="0 0 32 32">
  <path d="M30 12L2 12"/>
  <path d="M30 20L2 20"/>

</symbol>
<symbol id="ic-MenuHamburger3Outlined" viewBox="0 0 32 32">
  <path d="M30 16L2 16"/>
  <path d="M30 8L2 8"/>
  <path d="M30 24L2 24"/>

</symbol>
<symbol id="ic-PauseFilled100" viewBox="0 0 32 32">
  <path d="M10 7H14V25H10V7Z"/>
  <path d="M18 7H22V25H18V7Z"/>

</symbol>
<symbol id="ic-PauseFilled200" viewBox="0 0 32 32">
  <path d="M10 6H14V26H10V6Z"/>
  <path d="M18 6H22V26H18V6Z"/>

</symbol>
<symbol id="ic-PauseOutlined100" viewBox="0 0 32 32">
  <path d="M12.875 8.125V23.875H7.125V8.125H12.875Z"/>
  <path d="M24.875 8.125V23.875H19.125V8.125H24.875Z"/>

</symbol>
<symbol id="ic-PauseOutlined200" viewBox="0 0 32 32">
  <path d="M12.875 7.125V24.875H7.125V7.125H12.875Z"/>
  <path d="M24.875 7.125V24.875H19.125V7.125H24.875Z"/>

</symbol>
<symbol id="ic-PenCircleOutlined" viewBox="0 0 32 32">
  <path d="M16 4.25C9.51065 4.25 4.25 9.51065 4.25 16C4.25 22.4893 9.51065 27.75 16 27.75C22.4893 27.75 27.75 22.4893 27.75 16H30C30 23.732 23.732 30 16 30C8.26801 30 2 23.732 2 16C2 8.26801 8.26801 2 16 2V4.25Z"/>
  <path d="M28.5512 7.51476L15.5346 20.5313H11.4688V16.4655L24.4854 3.4489L28.5512 7.51476Z"/>
  <path d="M28.5512 7.51476L25.1925 10.8735L21.1266 6.80766L24.4854 3.4489L28.5512 7.51476Z"/>

</symbol>
<symbol id="ic-PersonCircleOutlined" viewBox="0 0 32 32">
  <circle cx="16" cy="13" r="3.875"/>
  <path d="M23 27C22.5098 23.6077 19.5625 21 16 21C12.4374 21 9.49019 23.6077 9 27"/>
  <circle cx="16" cy="16" r="12.875"/>

</symbol>
<symbol id="ic-PersonOutlined" viewBox="0 0 32 32">
  <circle cx="16" cy="10" r="5.875"/>
  <path d="M26 29C26 24.0294 21.5228 20 16 20C10.4772 20 6 24.0294 6 29"/>

</symbol>
<symbol id="ic-PersonSquareOutlined" viewBox="0 0 32 32">
  <circle cx="16" cy="13.5" r="3.375"/>
  <path d="M22.5 27C22.0448 23.6077 19.3081 21 16 21C12.6919 21 9.95518 23.6077 9.5 27"/>
  <path d="M26.875 5.125V26.875H5.125V5.125H26.875Z"/>

</symbol>
<symbol id="ic-PlayFilled100" viewBox="0 0 32 32">
  <path d="M9 6L27 16L9 26V6Z"/>

</symbol>
<symbol id="ic-PlayFilled200" viewBox="0 0 32 32">
  <path d="M8 4L29 16L8 28V4Z"/>

</symbol>
<symbol id="ic-PlayOutlined100" viewBox="0 0 32 32">
  <path d="M24.6836 16L10.125 24.0879V7.91113L24.6836 16Z"/>

</symbol>
<symbol id="ic-PlayOutlined200" viewBox="0 0 32 32">
  <path d="M26.7324 16L9.125 26.0605V5.93848L26.7324 16Z"/>

</symbol>
<symbol id="ic-QuestionCircleOutlined" viewBox="0 0 32 32">
  <path d="M16 18C16 14.5 20 16 20 13C20 11.3647 19 10 16 10C12 10 12 13.5 12 13.5"/>
  <circle cx="16" cy="21.5" r="1.5"/>
  <circle cx="16" cy="16" r="12.875"/>

</symbol>
<symbol id="ic-ShieldOutlined" viewBox="0 0 32 32">
  <path d="M26.75 7.08691V13.5996C26.75 19.5255 23.0847 26.7604 16 28.707C8.9153 26.7604 5.25 19.5255 5.25 13.5996V7.08691L16 3.32422L26.75 7.08691Z"/>

</symbol>
<symbol id="ic-ShieldOutlinedCheck" viewBox="0 0 32 32">
  <path d="M22.3743 11.4342L14.2425 19.5659L9.9999 15.3233"/>
  <path d="M26.75 7.08691V13.5996C26.75 19.5255 23.0847 26.7604 16 28.707C8.9153 26.7604 5.25 19.5255 5.25 13.5996V7.08691L16 3.32422L26.75 7.08691Z"/>

</symbol>
<symbol id="ic-SpeakerFilled200" viewBox="0 0 32 32">
  <path d="M16.5 4L9.72222 10.8571H3.5V21.1429H9.72222L16.5 28V4Z"/>
  <path d="M20.5 10C21.7806 11.5915 22.5 13.7497 22.5 16C22.5 18.2503 21.7806 20.4085 20.5 22"/>
  <path d="M23.5 5C26.0612 7.91769 27.5 11.8744 27.5 16C27.5 20.1256 26.0612 24.0823 23.5 27"/>

</symbol>
<symbol id="ic-SpeakerOutlined200" viewBox="0 0 32 32">
  <path d="M15.375 25.2607L10.5225 20.3516L10.1924 20.0176H4.625V11.9824H10.1924L10.5225 11.6484L15.375 6.73828V25.2607Z"/>
  <path d="M20.5 10C21.7806 11.5915 22.5 13.7497 22.5 16C22.5 18.2503 21.7806 20.4085 20.5 22"/>
  <path d="M23.5 5C26.0612 7.91769 27.5 11.8744 27.5 16C27.5 20.1256 26.0612 24.0823 23.5 27"/>

</symbol>
<symbol id="ic-SpeakerSlashFilled200" viewBox="0 0 32 32">
  <path d="M16 19.75V28L9.22266 21.1426H3V10.8574H4.14258L16 19.75ZM16 12.249L11.3174 8.7373L16 4V12.249Z"/>
  <path d="M20.877 9.29468C22.3347 11.1065 23.125 13.5209 23.125 15.9998C23.125 16.5096 23.0892 17.0167 23.0234 17.5164L20.8721 15.9041C20.8519 13.9184 20.2088 12.0541 19.123 10.7048L20.877 9.29468Z"/>
  <path d="M24.8887 26.4172C24.5632 26.8767 24.2164 27.3201 23.8457 27.7424L22.1543 26.2581C22.4862 25.88 22.7969 25.4813 23.0879 25.0667L24.8887 26.4172ZM23.8457 4.25806C26.5989 7.39455 28.125 11.6202 28.125 16.0002C28.125 17.6599 27.9044 19.2971 27.4824 20.8616L25.5225 19.3918C25.7539 18.2918 25.875 17.1543 25.875 16.0002C25.875 12.1292 24.5233 8.44128 22.1543 5.74243L23.8457 4.25806Z"/>
  <path d="M3 6L29 26"/>

</symbol>
<symbol id="ic-SpeakerSlashOutlined200" viewBox="0 0 32 32">
  <path d="M7.14258 13.1074H5.25V18.8926H10.1621L10.8223 19.5615L13.75 22.5225V18.0625L16 19.75V28L9.22266 21.1426H3V10.8574H4.14258L7.14258 13.1074ZM16 12.249L13.75 10.5615V9.47656L13.1328 10.0996L11.3174 8.7373L16 4V12.249Z"/>
  <path d="M20.877 9.29468C22.3347 11.1065 23.125 13.5209 23.125 15.9998C23.125 16.5096 23.0892 17.0167 23.0234 17.5164L20.8721 15.9041C20.8519 13.9184 20.2088 12.0541 19.123 10.7048L20.877 9.29468Z"/>
  <path d="M24.8887 26.4172C24.5632 26.8767 24.2164 27.3201 23.8457 27.7424L22.1543 26.2581C22.4862 25.88 22.7969 25.4813 23.0879 25.0667L24.8887 26.4172ZM23.8457 4.25806C26.5989 7.39455 28.125 11.6202 28.125 16.0002C28.125 17.6599 27.9044 19.2971 27.4824 20.8616L25.5225 19.3918C25.7539 18.2918 25.875 17.1543 25.875 16.0002C25.875 12.1292 24.5233 8.44128 22.1543 5.74243L23.8457 4.25806Z"/>
  <path d="M3 6L29 26"/>

</symbol>
<symbol id="ic-SquareFilled" viewBox="0 0 32 32">
  <path d="M4 4H28V28H4V4Z"/>

</symbol>
<symbol id="ic-SquareOutlined" viewBox="0 0 32 32">
  <path d="M26.875 5.125V26.875H5.125V5.125H26.875Z"/>

</symbol>
<symbol id="ic-StarFilled" viewBox="0 0 32 32">
  <path d="M16 2L20.5 11.5L30 13L23 20L25 30L16 25L7 30L9 20L2 13L11.5 11.5L16 2Z"/>

</symbol>
<symbol id="ic-StarHalfOutlined" viewBox="0 0 32 32">
  <path d="M19.4834 11.9814L19.7373 12.5186L20.3242 12.6113L27.6406 13.7666L22.2041 19.2041L21.7783 19.6299L21.8965 20.2207L23.4189 27.835L16.5459 24.0166L16 23.7129L15.4541 24.0166L8.58008 27.835L10.1035 20.2207L10.2217 19.6299L4.3584 13.7666L11.6758 12.6113L12.2627 12.5186L12.5166 11.9814L16 4.62695L19.4834 11.9814Z"/>
  <path d="M16 25L7 30L9 20L2 13L11.5 11.5L16 2V25Z"/>

</symbol>
<symbol id="ic-StarOutlined" viewBox="0 0 32 32">
  <path d="M19.4834 11.9814L19.7373 12.5186L20.3242 12.6113L27.6406 13.7666L22.2041 19.2041L21.7783 19.6299L21.8965 20.2207L23.4189 27.835L16.5459 24.0166L16 23.7129L15.4541 24.0166L8.58008 27.835L10.1035 20.2207L10.2217 19.6299L4.3584 13.7666L11.6758 12.6113L12.2627 12.5186L12.5166 11.9814L16 4.62695L19.4834 11.9814Z"/>

</symbol>
<symbol id="ic-WaveformActived" viewBox="0 0 32 32">
  <path d="M10 19L10 13"/>
  <path d="M14 25L14 7"/>
  <path d="M22 23L22 9"/>
  <path d="M18 22L18 10"/>

</symbol>
</svg>